{"title":"Chuck.S05E02.HDTV.XviD-Arnarcool.avi","uid":6796215,"size":366786028,"categoryP":"video","categoryS":"tv_shows","magnet":"?xt=urn:btih:0f3405817f094999adedce60aab7c6de3e46b507&amp;dn=Chuck.S05E02.HDTV.XviD-Arnarcool.avi&amp;tr=udp%3A%2F%2Ftracker.openbittorrent.com%3A80&amp;tr=udp%3A%2F%2Fopen.demonii.com%3A1337&amp;tr=udp%3A%2F%2Ftracker.coppersurfer.tk%3A6969&amp;tr=udp%3A%2F%2Fexodus.desync.com%3A6969","seeders":1,"leechers":0,"uploader":"TvFreak","files":-1,"time":1320460757,"description":"Chuck S05E02 HDTV XviD - Arnarcool \n\nHope you enjoy it :) I will also be uploading a 210Mb codec tomorrow, so stay tuned :P\n\n\nSCREENSHOTS:\n\n  &lt;a href=&quot;\nhttp://image.bayimg.com/makoaaadm.jpg&quot; rel=&quot;nofollow&quot; target=&quot;_NEW&quot;&gt;\nhttp://image.bayimg.com/makoaaadm.jpg&lt;/a&gt;\n  &lt;a href=&quot;\nhttp://image.bayimg.com/makobaadm.jpg&quot; rel=&quot;nofollow&quot; target=&quot;_NEW&quot;&gt;\nhttp://image.bayimg.com/makobaadm.jpg&lt;/a&gt;\n  &lt;a href=&quot;\nhttp://image.bayimg.com/makocaadm.jpg&quot; rel=&quot;nofollow&quot; target=&quot;_NEW&quot;&gt;\nhttp://image.bayimg.com/makocaadm.jpg&lt;/a&gt;\n\n\nINFO: \n\n\nFormat                           : AVI\nFormat/Info                      : Audio Video Interleave\nFile size                        : 350 MiB\nDuration                         : 43mn 25s\nOverall bit rate mode            : Variable\nOverall bit rate                 : 1 126 Kbps\nWriting application              : transcode-1.0.6\n\nVideo\nID                               : 0\nFormat                           : MPEG-4 Visual\nFormat profile                   : Advanced Simple@L5\nFormat settings, BVOP            : 2\nFormat settings, QPel            : No\nFormat settings, GMC             : No warppoints\nFormat settings, Matrix          : Default (H.263)\nCodec ID                         : XVID\nCodec ID/Hint                    : XviD\nDuration                         : 43mn 25s\nBit rate                         : 974 Kbps\nWidth                            : 624 pixels\nHeight                           : 352 pixels\nDisplay aspect ratio             : 16:9\nFrame rate                       : 23.976 fps\nColor space                      : YUV\nChroma subsampling               : 4:2:0\nBit depth                        : 8 bits\nScan type                        : Progressive\nCompression mode                 : Lossy\nBits/(Pixel*Frame)               : 0.185\nStream size                      : 302 MiB (86%)\nWriting library                  : XviD 1.2.1 (UTC 2008-12-04)\n\nAudio\nID                               : 1\nFormat                           : MPEG Audio\nFormat version                   : Version 1\nFormat profile                   : Layer 3\nMode                             : Joint stereo\nMode extension                   : MS Stereo\nCodec ID                         : 55\nCodec ID/Hint                    : MP3\nDuration                         : 43mn 25s\nBit rate mode                    : Variable\nBit rate                         : 144 Kbps\nChannel(s)                       : 2 channels\nSampling rate                    : 48.0 KHz\nCompression mode                 : Lossy\nStream size                      : 43.5 MiB (12%)\nAlignment                        : Aligned on interleaves\nInterleave, duration             : 24 ms (0.58 video frame)\nWriting library                  : LAME3.98r\nEncoding settings                : -m j -V 4 -q 3 -lowpass 17.5 --abr 144\n\n","torrent":{"xt":"urn:btih:0f3405817f094999adedce60aab7c6de3e46b507","amp;dn":"Chuck.S05E02.HDTV.XviD-Arnarcool.avi","amp;tr":["udp%3A%2F%2Ftracker.openbittorrent.com%3A80","udp%3A%2F%2Fopen.demonii.com%3A1337","udp%3A%2F%2Ftracker.coppersurfer.tk%3A6969","udp%3A%2F%2Fexodus.desync.com%3A6969"],"infoHash":"0f3405817f094999adedce60aab7c6de3e46b507","infoHashBuffer":{"type":"Buffer","data":[15,52,5,129,127,9,73,153,173,237,206,96,170,183,198,222,62,70,181,7]},"announce":[],"urlList":[]}}